# xmcd
#
# Track frame offsets: 
#        150
#        18470
#        33990
#        45567
#        62954
#        79755
#        94899
#        108245
#        129574
#        147838
#        163135
#        180717
#        191319
#        202185
#        214305
#
# Disc length: 3096 seconds
#
# Revision: 0
# Processed by: cddbd v1.5.2PL0 Copyright (c) Steve Scherf et al.
# Submitted via: ExactAudioCopy v1.0b4
#
DISCID=d80c160f
DTITLE=John Fogerty - Austin City Limits - Live (DVD)
DYEAR=2004
DGENRE=Blues
TTITLE0=Born on the bayou
TTITLE1=Green river
TTITLE2=Cottonfields
TTITLE3=Sugar sugar (in my life)
TTITLE4=I will walk with you
TTITLE5=Rhubarb pie
TTITLE6=Down on the corner
TTITLE7=Deju Vu (all over again)
TTITLE8=A Hundred And Ten Degrees In The Shade
TTITLE9=Hot rod heart
TTITLE10=The Old Man Down The Road
TTITLE11=Travelin’ band
TTITLE12=Bad moon rising
TTITLE13=Fortunate son
TTITLE14=Proud Mary
EXTD=
EXTT0=
EXTT1=
EXTT2=
EXTT3=
EXTT4=
EXTT5=
EXTT6=
EXTT7=
EXTT8=
EXTT9=
EXTT10=
EXTT11=
EXTT12=
EXTT13=
EXTT14=
PLAYORDER=
